<svg class="icon" width="200" height="200" viewBox="0 0 1024 1024" xmlns="http://www.w3.org/2000/svg"><path d="M650.803 0c33.904 0 66.421 13.486 90.395 37.49l180.788 181.02a128.083 128.083 0 0 1 37.443 90.51V896c0 70.693-57.235 128-127.837 128H192.408c-70.602 0-127.837-57.307-127.837-128V128c0-70.693 57.235-128 127.837-128zm0 64H192.408l-7.454.43c-31.79 3.698-56.464 30.747-56.464 63.57v768l.43 7.463c3.691 31.83 30.709 56.537 63.488 56.537h639.184l7.454-.43c31.79-3.698 56.464-30.748 56.464-63.57V309.02l-.555-8.412a64.033 64.033 0 0 0-18.166-36.843L696 82.745l-6.331-5.555A63.867 63.867 0 0 0 650.802 64zm52.544 673.143l5.766.506c14.967 2.662 26.316 15.494 26.316 30.922 0 17.358-14.364 31.429-32.082 31.429H318.366l-5.766-.506c-14.966-2.662-26.314-15.494-26.314-30.923 0-17.357 14.363-31.428 32.08-31.428H703.35zm0-192l5.766.506c14.967 2.662 26.316 15.494 26.316 30.922 0 17.358-14.364 31.429-32.082 31.429H318.366l-5.766-.506c-14.966-2.662-26.314-15.494-26.314-30.923 0-17.357 14.363-31.428 32.08-31.428H703.35zM428.846 164.507c15.559-10.822 37.84-5.715 46.701 12.044L583.48 392.839l96.414-96.608 3.835-3.28a31.895 31.895 0 0 1 18.747-6.093h63.874l5.74.516c14.9 2.708 26.197 15.775 26.197 31.483l-.515 5.752c-2.704 14.927-15.744 26.247-31.421 26.247h-50.652L597.313 469.48l-4.446 3.727c-15.558 10.823-37.84 5.715-46.701-12.044L438.169 244.94l-96.348 96.544-3.836 3.28a31.895 31.895 0 0 1-18.747 6.093h-63.873l-5.741-.515c-14.898-2.709-26.195-15.775-26.195-31.484l.514-5.752c2.704-14.927 15.744-26.247 31.422-26.247h50.651l118.385-118.624z"/></svg>