<svg class="icon" width="200" height="200" viewBox="0 0 1024 1024" xmlns="http://www.w3.org/2000/svg"><path d="M146.286 109.714v768h768a36.571 36.571 0 1 1 0 73.143h-768a73.143 73.143 0 0 1-73.143-73.143v-768a36.571 36.571 0 1 1 73.143 0zM439.15 315.173L686.3 464.64l124.854-226.523a34.816 34.816 0 0 1 48.713-13.678c17.08 10.313 22.93 33.17 13.056 51.054L712.375 566.747 465.262 417.28 322.56 676.17a34.816 34.816 0 0 1-48.713 13.677c-17.079-10.313-22.93-33.17-13.056-51.054l178.359-323.62z"/></svg>