<svg class="icon" width="200" height="200" viewBox="0 0 1024 1024" xmlns="http://www.w3.org/2000/svg"><path d="M173.512 73.142c18.643 0 33.757 15.204 33.757 33.958 0 16.672-11.942 30.537-27.69 33.413l-6.068.547h-68.808c-16.571 0-30.355 12.012-33.214 27.854l-.544 6.103v747.094c0 16.67 11.943 30.537 27.69 33.412l6.069.546h338.735c18.645 0 33.759 15.205 33.759 33.96 0 16.67-11.943 30.537-27.69 33.411l-6.069.547H104.702c-52.642 0-95.902-40.403-100.81-92.065l-.463-9.811V175.018c0-52.954 40.164-96.473 91.52-101.41l9.753-.466h68.81zM779.42 613.707c92.783 0 167.998 75.79 167.998 169.283v40.606c42.285 12.51 73.142 51.7 73.142 98.107 0 56.49-45.722 102.284-102.121 102.284H646.114c-56.399 0-102.12-45.793-102.12-102.284 0-44.29 28.104-82.006 67.426-96.23l.001-42.483c0-93.492 75.215-169.283 167.998-169.283zm139.019 273.902H646.114c-18.8 0-34.04 15.264-34.04 34.094s15.24 34.094 34.04 34.094h272.324c18.8 0 34.04-15.265 34.04-34.094s-15.24-34.094-34.04-34.094zM779.419 681.42c-55.67 0-100.799 45.474-100.799 101.57v33.857h201.598V782.99c0-52.796-39.977-96.184-91.092-101.105zm-109.61-258.735c9.974 13.27 8.651 31.451-2.31 43.164l-4.56 4.066-273.705 203.362c-11.858 8.812-27.843 8.846-39.636.717l-4.774-3.983-134.983-135.3c-13.2-13.23-13.113-34.596.194-47.722 11.829-11.666 30.121-12.893 43.312-3.73l4.684 3.924 114.177 114.435 250.1-185.765c15.013-11.155 36.28-8.097 47.501 6.832zm110.05-349.543c52.642 0 95.902 40.403 100.81 92.065l.463 9.811V516.51c0 18.754-15.114 33.959-33.757 33.959-16.573 0-30.356-12.014-33.215-27.855l-.544-6.104V175.017c0-16.67-11.942-30.535-27.69-33.41l-6.068-.547H714.46c-18.644 0-33.758-15.204-33.758-33.96 0-16.67 11.942-30.536 27.69-33.41l6.068-.548h65.398zM270.854 0c16.27 0 29.802 12.011 32.609 27.849l.533 6.103v136.665c0 18.751-14.838 33.952-33.142 33.952-16.27 0-29.802-12.011-32.609-27.849l-.534-6.103V33.952C237.711 15.2 252.551 0 270.854 0zm337.139 0c16.27 0 29.801 12.011 32.608 27.849l.534 6.103v136.665c0 18.751-14.839 33.952-33.142 33.952-16.271 0-29.802-12.011-32.61-27.849l-.533-6.103V33.952C574.85 15.2 589.69 0 607.993 0zm-94.744 73.142c18.644 0 33.758 15.204 33.758 33.958 0 16.672-11.943 30.537-27.691 33.413l-6.067.547H378.162c-18.644 0-33.758-15.204-33.758-33.96 0-16.67 11.943-30.536 27.69-33.41l6.068-.548H513.25z"/></svg>