<svg class="icon" width="200" height="200" viewBox="0 0 1024 1024" xmlns="http://www.w3.org/2000/svg"><path d="M740.237 529.56c12.644-11.223 31.453-11.223 44.098 0l68.854 61.152 89.885 17.006c14.398 2.72 25.163 14.54 27.161 28.888l.307 6.284-3.817 93.188 43.033 82.48c6.884 13.183 4.548 29.132-5.18 39.673l-4.617 4.161-73.771 55.152-36.097 85.706c-5.797 13.743-19.49 21.838-33.646 20.631l-6.073-1.097-88.068-24.594-88.108 24.594c-14.137 3.94-28.872-1.945-36.773-14l-2.946-5.534-36.191-85.775-73.678-55.083c-11.803-8.826-16.475-24.232-12.188-38.038l2.392-5.794 42.94-82.345-3.724-93.326c-.61-14.936 8.279-28.282 21.533-33.467l5.933-1.703 89.794-17.007zM483.429 0c148.969 0 269.714 120.766 269.714 269.714 0 148.949-120.745 269.715-269.714 269.715a271.458 271.458 0 0 1-46.259-3.952v-.013C218.03 565.065 77.507 735.687 77.507 969.666c0 18.646-15.048 33.763-33.611 33.763-18.562 0-33.61-15.117-33.61-33.763 0-230.937 123.085-411.324 319.588-478.196l.001.011c-70.197-48.697-116.16-129.867-116.16-221.767C213.714 120.766 334.458 0 483.428 0zM762.24 600.869l-53.78 47.828a33.33 33.33 0 0 1-15.933 7.845l-70.174 13.235 3.026 72.89a34.987 34.987 0 0 1-1.598 11.979l-2.326 5.597-33.653 64.303 57.623 43.12a34.023 34.023 0 0 1 8.176 8.76l2.834 5.352 28.165 66.926 68.837-19.143a32.945 32.945 0 0 1 11.822-1.076l5.875 1.076 68.745 19.143 28.257-66.926a34.384 34.384 0 0 1 6.533-10.095l4.477-4.017 57.532-43.051-33.561-64.372a34.826 34.826 0 0 1-3.645-11.502l-.28-6.074 2.934-72.89-70.08-13.235a33.189 33.189 0 0 1-11.103-4.272l-4.832-3.573-53.872-47.828zm2.331 67.702c56.186 0 101.715 45.55 101.715 101.715S820.756 872 764.57 872s-101.714-45.55-101.714-101.714 45.53-101.715 101.714-101.715zm0 67.884c-18.64 0-33.77 15.137-33.77 33.83s15.13 33.832 33.77 33.832 33.77-15.138 33.77-33.831-15.13-33.831-33.77-33.831zM483.43 67.525c-111.612 0-202.11 90.514-202.11 202.19 0 96.619 67.74 177.396 158.286 197.422l-.004-.018a580.08 580.08 0 0 1 38.349-3.081 33.38 33.38 0 0 1 22.337 7.169c103.726-8.567 185.251-95.497 185.251-201.493 0-111.675-90.498-202.188-202.11-202.188z"/></svg>