<svg class="icon" width="200" height="186.86" viewBox="0 0 1096 1024" xmlns="http://www.w3.org/2000/svg"><path d="M950.023 0c77.051 0 140.178 59.655 145.758 135.322l.4 10.913v584.944c0 77.092-59.623 140.252-135.248 145.833l-10.91.402H637.977l-137.409 136.028c-12.756 12.617-32.453 13.912-46.636 3.96l-5.037-4.26c-12.611-12.764-13.906-32.472-3.958-46.663l4.258-5.039 158.888-157.144h341.94c37.478 0 68.366-28.227 72.588-64.59l.492-8.527V146.235c0-37.498-28.212-68.402-64.556-72.627l-8.524-.492H146.158c-37.478 0-68.366 28.227-72.588 64.592l-.492 8.527v584.942c0 37.498 28.212 68.402 64.556 72.626l8.524.492h186.8c20.181 0 36.54 16.368 36.54 36.56 0 17.947-12.925 32.872-29.97 35.968l-6.57.59h-186.8C69.108 877.412 5.98 817.758.4 742.09L0 731.18V146.235C0 69.143 59.623 5.983 135.249.401L146.159 0h803.866zM544.548 508.941c20.2 0 36.575 16.16 36.575 36.091 0 17.718-12.939 32.454-30 35.51l-6.575.58H251.897c-20.2 0-36.576-16.158-36.576-36.09 0-17.717 12.94-32.454 30-35.51l6.576-.58h292.65zm297.35-214.098c20.167 0 36.515 16.16 36.515 36.091 0 17.718-12.917 32.454-29.952 35.51l-6.563.581H256.73c-20.167 0-36.515-16.159-36.515-36.09 0-17.718 12.917-32.454 29.952-35.51l6.563-.582h585.168z"/></svg>