<svg class="icon" width="200" height="199.61" viewBox="0 0 1026 1024" xmlns="http://www.w3.org/2000/svg"><path d="M476.487 0c149.923 0 271.46 122.82 271.46 274.324S626.41 548.647 476.487 548.647c-10.96 0-21.767-.656-32.386-1.932l-.005-.02c-228.648 25.63-375.96 200.961-375.96 442.913 0 18.988-15.253 34.38-34.068 34.38-18.815 0-34.068-15.392-34.068-34.38C0 753.96 125.596 570.073 325.922 502.607l.005.016c-72.89-49.188-120.9-133.079-120.9-228.3C205.027 122.82 326.564 0 476.487 0zm272.608 535.2c12.812-11.087 31.853-11.087 44.666 0l69.876 60.489 91.033 16.764c14.598 2.688 25.513 14.388 27.539 28.591l.31 6.222-3.87 92.224 43.611 81.362c6.993 13.054 4.623 28.856-5.253 39.292l-4.685 4.12-74.758 54.486-36.596 84.719c-5.878 13.589-19.748 21.594-34.088 20.403l-6.153-1.084-89.279-24.291-89.318 24.291c-14.323 3.892-29.248-1.927-37.257-13.848l-2.986-5.471-36.69-84.719-74.663-54.486c-11.981-8.738-16.723-23.999-12.368-37.673l2.43-5.74 43.515-81.36-3.774-92.225c-.618-14.787 8.394-27.998 21.833-33.128l6.015-1.685 91.008-16.763zm-228.44 77.59l-33.983 77.275 40.547 321.754a5.727 5.727 0 0 1-5.683 6.443h-78.644a5.727 5.727 0 0 1-5.682-6.443l40.547-321.754-38.88-77.275h81.779zm250.726-6.98l-54.528 47.242a34.111 34.111 0 0 1-16.142 7.75l-71.12 13.072 3.067 72.002a33.866 33.866 0 0 1-1.624 11.869l-2.363 5.545-34.102 63.487 58.39 42.6a34.008 34.008 0 0 1 8.295 8.666l2.875 5.298 28.555 66.113 69.786-18.9c3.91-1.062 7.962-1.416 11.968-1.062l5.948 1.063 69.692 18.899 28.649-66.113a33.955 33.955 0 0 1 6.628-9.99l4.542-3.975 58.296-42.598-34.007-63.488a33.89 33.89 0 0 1-3.703-11.397l-.285-6.017 2.973-72.002-71.026-13.073a34.133 34.133 0 0 1-11.246-4.22l-4.896-3.53-54.622-47.24zm-2.817 75.704c56.933 0 103.086 46.152 103.086 103.086s-46.153 103.086-103.086 103.086S665.478 841.533 665.478 784.6s46.153-103.086 103.086-103.086zm0 68.861c-18.902 0-34.224 15.322-34.224 34.225s15.322 34.224 34.224 34.224 34.225-15.322 34.225-34.224-15.322-34.225-34.225-34.225zM476.487 68.76c-112.344 0-203.418 92.033-203.418 205.562 0 102.783 74.646 187.946 172.143 203.149l-.005-.02a591.343 591.343 0 0 1 28.826-2.073 33.658 33.658 0 0 1 17.527 3.945c105.306-7.789 188.344-96.595 188.344-205 0-113.53-91.073-205.563-203.417-205.563z"/></svg>