<svg class="icon" width="200" height="200" viewBox="0 0 1024 1024" xmlns="http://www.w3.org/2000/svg"><path d="M531.422 6.043l4.727 3.95 477.857 477.857c13.33 13.33 13.33 34.942 0 48.272-11.85 11.85-30.243 13.166-43.545 3.951l-4.727-3.95-45.72-45.713v431.42c0 53.108-40.565 96.752-92.435 101.703l-9.851.467H204.003c-53.169 0-96.862-40.52-101.819-92.33l-.469-9.84V492.695L58.281 536.13c-11.848 11.85-30.241 13.166-43.544 3.951l-4.728-3.95c-11.848-11.849-13.166-30.242-3.948-43.545l3.95-4.728L487.876 9.993c11.849-11.849 30.242-13.166 43.545-3.95zm-19.446 76.374L169.907 424.5v497.33c0 16.72 12.062 30.626 27.967 33.51l6.13.548 265.718-.001v-401.6H307.483c-18.963 0-34.336-16.374-34.336-36.572 0-17.954 12.147-32.885 28.165-35.981l6.171-.59h412.48c18.963 0 34.335 16.374 34.335 36.571 0 17.955-12.146 32.886-28.163 35.982l-6.173.59H542.865v401.6h274.863c16.738 0 30.66-12.046 33.546-27.934l.55-6.122V422.226L511.976 82.417z"/></svg>