<svg class="icon" width="200" height="200" viewBox="0 0 1024 1024" xmlns="http://www.w3.org/2000/svg"><path d="M626.627 10.243A34.133 34.133 0 0 1 661.326 1.6c86.045 27.293 163.447 77.87 224.667 146.067a34.131 34.131 0 0 1 7.577 31.611c-4.048 15.146-6.113 31.036-6.113 47.394 0 74.745 43.622 140.653 108.222 167.446a34.132 34.132 0 0 1 20.564 25.75c5.154 30.015 7.746 60.817 7.746 92.127 0 42.256-4.72 83.896-13.981 124.312a34.132 34.132 0 0 1-22.734 24.842c-70.76 22.966-120.296 92.17-120.296 171.835 0 12.854 1.275 25.513 3.779 37.844a34.131 34.131 0 0 1-9.627 31.233c-56.744 55.31-125.044 96.617-199.803 120.33a34.133 34.133 0 0 1-34.107-8.055c-31.211-30.324-71.92-47.355-115.225-47.355-43.283 0-84.025 17.017-115.351 47.315a34.133 34.133 0 0 1-34.016 8.011c-64.086-20.251-123.595-53.582-175.28-97.784a34.131 34.131 0 0 1-11.598-30.818c1.162-8.049 1.742-16.396 1.742-25.056 0-83.62-54.542-155.362-130.13-174.764a34.132 34.132 0 0 1-24.193-23.212C7.857 619.863 0 566.503 0 511.995c0-31.072 2.553-61.82 7.592-92.01a34.132 34.132 0 0 1 20.623-25.922c64.677-26.745 108.317-92.624 108.317-167.392 0-16.286-2.047-32.254-6.04-47.624a34.131 34.131 0 0 1 7.61-31.355C199.17 79.51 276.577 28.905 362.663 1.6a34.133 34.133 0 0 1 34.106 8.055c31.21 30.323 71.92 47.355 115.225 47.355 42.336 0 82.248-16.277 112.28-44.367zm32.071 62.596l-9.515 7.493c-39.665 28.937-87.235 44.941-137.188 44.941-51.116 0-99.698-16.76-139.801-46.956l-6.834-5.478-2.142.757c-59.683 22.267-114.06 57.782-159.466 103.884l-3.186 3.285 2.158 13.091a258.358 258.358 0 0 1 1.554 16.321l.52 16.494c0 92.98-49.737 176.516-126.634 218.995l-5.802 2.967-2.423 22.667-1.254 20.28-.42 20.415c0 47.84 6.88 94.563 20.267 138.985l-4.77-17.283 5.412 1.955c88.748 33.76 150.981 119.722 156.225 219.335l.358 13.663c0 3.957-.089 7.884-.27 11.78l-.207 3.251 3.54 2.878c34.801 26.924 73.145 48.378 113.84 63.58l2.631.919 6.928-5.487c36.137-27.115 79.083-43.376 124.537-46.356l15.239-.499c51.116 0 99.697 16.76 139.8 46.958l6.766 5.382 3.425-1.117c49.203-18.528 94.81-46.083 134.737-81.235l3.968-3.796-1.403-14.58-.576-17.344c0-99.963 57.473-188.585 143.377-227.434l4.965-2.093.804-3.778a487.698 487.698 0 0 0 7.37-65.488l.496-22.196c0-27.463-2.268-54.4-6.762-80.574l2.529 17.212-5.797-2.956c-72.961-40.4-121.465-117.816-126.132-205.141l-.37-13.865c0-11.138.708-22.161 2.116-33.015l2.048-12.96-3.003-3.196c-45.52-46.132-99.917-81.645-159.587-103.906l-2.069-.755zM511.423 309.711c113.296 0 205.141 91.845 205.141 205.14s-91.845 205.142-205.14 205.142-205.141-91.845-205.141-205.141 91.844-205.14 205.14-205.14zm0 68.38c-75.53 0-136.76 61.23-136.76 136.76s61.23 136.762 136.76 136.762 136.761-61.23 136.761-136.761-61.23-136.761-136.76-136.761z"/></svg>