<svg class="icon" width="200" height="200" viewBox="0 0 1024 1024" xmlns="http://www.w3.org/2000/svg"><path d="M832 0c70.693 0 128 57.307 128 128v768c0 70.693-57.307 128-128 128H192c-70.693 0-128-57.307-128-128V128C64 57.307 121.307 0 192 0zm0 64H192l-7.463.43C152.705 68.129 128 95.178 128 128v768l.43 7.463C132.129 935.295 159.178 960 192 960h640l7.463-.43C871.295 955.871 896 928.822 896 896V128l-.43-7.463C891.871 88.705 864.822 64 832 64zM702.938 800l5.737.526c14.893 2.755 26.182 16.055 26.182 32.045 0 17.989-14.29 32.572-31.919 32.572H319.92l-5.737-.526C299.289 861.862 288 848.562 288 832.571 288 814.583 302.29 800 319.919 800h383.018zm0-129.143l5.737.526c14.893 2.755 26.182 16.055 26.182 32.046 0 17.988-14.29 32.571-31.919 32.571H319.92l-5.737-.526C299.289 732.72 288 719.42 288 703.43c0-17.989 14.29-32.572 31.919-32.572h383.018zm-32.091-544l5.753.526c14.934 2.755 26.257 16.055 26.257 32.046 0 17.988-14.331 32.571-32.011 32.571h-32.56v154.406c.347 1.844.54 3.745.568 5.687l.002.331 72.712 126.925a63.714 63.714 0 0 1 8.426 30.859l.006.811c0 35.258-28.653 63.838-63.998 63.838H364.581a64.122 64.122 0 0 1-31.752-8.411c-30.688-17.492-41.35-56.487-23.814-87.097l73.28-127.92V192h-31.426l-5.755-.526c-14.933-2.755-26.257-16.055-26.257-32.045 0-17.989 14.332-32.572 32.012-32.572h319.977zM583.89 385.143h-147.2L364.58 511.02h291.422L583.89 385.143zM574.288 192H446.293v128h127.995V192z"/></svg>