<svg class="icon" width="200" height="200" viewBox="0 0 1024 1024" xmlns="http://www.w3.org/2000/svg"><path d="M832 0c70.693 0 128 57.307 128 128v768c0 70.693-57.307 128-128 128H192c-70.693 0-128-57.307-128-128V128C64 57.307 121.307 0 192 0zm0 64H192l-7.463.43C152.705 68.129 128 95.178 128 128v768l.43 7.463C132.129 935.295 159.178 960 192 960h640l7.463-.43C871.295 955.871 896 928.822 896 896V128l-.43-7.463C891.871 88.705 864.822 64 832 64zM448 736l5.752.515C468.68 739.224 480 752.29 480 768c0 17.673-14.327 32-32 32H320l-5.752-.515C299.32 796.776 288 783.71 288 768c0-17.673 14.327-32 32-32h128zm256 0l5.752.515C724.68 739.224 736 752.29 736 768c0 17.673-14.327 32-32 32H576l-5.752-.515C555.32 796.776 544 783.71 544 768c0-17.673 14.327-32 32-32h128zm0-544c35.346 0 64 28.654 64 64v256c0 35.346-28.654 64-64 64H320c-35.346 0-64-28.654-64-64V256c0-35.346 28.654-64 64-64zm0 64H320v256h384V256z"/></svg>