<svg class="icon" width="200" height="200" viewBox="0 0 1024 1024" xmlns="http://www.w3.org/2000/svg"><path d="M928.254 0l9.221.44C986.027 5.091 1024 46.1 1024 96v544l-.439 9.246c-4.64 48.68-45.538 86.754-95.307 86.754h-97.397v86.1c0 69.756-56.09 126.435-125.71 127.562l-2.115.017H198.609a63.995 63.995 0 0 0-37.274 11.971l-72.313 51.817A56.302 56.302 0 0 1 56.227 1024C25.174 1024 0 998.874 0 967.88V375.578C0 305.118 57.229 248 127.824 248h34.462V96l.439-9.246C167.365 38.074 208.263 0 258.032 0h670.222zm-225.22 311.789h-575.21l-7.454.43c-31.785 3.684-56.457 30.646-56.457 63.36V952.93l60.146-43.098 9.568-6.228a128.013 128.013 0 0 1 64.981-17.715h504.425l7.454-.43c31.785-3.684 56.457-30.646 56.457-63.36V375.579l-.429-7.44c-3.691-31.724-30.706-56.35-63.482-56.35zM928.253 64H258.032l-5.737.515C237.407 67.224 226.117 80.29 226.117 96l-.002 152h476.918c69.89 0 126.678 55.982 127.807 125.469l.017 2.11V672h97.397l5.737-.515c14.888-2.709 26.178-15.775 26.178-31.485V96l-.514-5.752C956.953 75.32 943.922 64 928.254 64zM448.286 581.714l5.906.497c15.328 2.613 26.95 15.212 26.95 30.36 0 17.043-14.71 30.858-32.856 30.858H382.57l-5.906-.498c-15.328-2.612-26.95-15.211-26.95-30.36 0-17.042 14.71-30.857 32.856-30.857h65.715zm193.143 0l5.906.497c15.328 2.613 26.95 15.212 26.95 30.36 0 17.043-14.71 30.858-32.856 30.858h-65.715l-5.906-.498c-15.328-2.612-26.95-15.211-26.95-30.36 0-17.042 14.71-30.857 32.856-30.857h65.715zm-386.286 0l5.906.497c15.328 2.613 26.951 15.212 26.951 30.36 0 17.043-14.71 30.858-32.857 30.858h-65.714l-5.907-.498c-15.328-2.612-26.95-15.211-26.95-30.36 0-17.042 14.71-30.857 32.857-30.857h65.714z"/></svg>