<svg class="icon" width="200" height="174.89" viewBox="0 0 1171 1024" xmlns="http://www.w3.org/2000/svg"><path d="M1024.56 877.714c80.79 0 146.286-65.494 146.286-146.285V146.286C1170.846 65.494 1105.351 0 1024.56 0H146.846C66.055 0 .56 65.494.56 146.286v585.143c0 80.791 65.495 146.285 146.286 146.285h877.714zm0-71.836H146.846c-37.512 0-68.426-28.236-72.652-64.614l-.49-8.53V147.593c0-37.51 28.236-68.425 64.613-72.65l8.529-.493h877.714c37.512 0 68.427 28.236 72.652 64.614l.492 8.529v585.143c0 37.51-28.237 68.425-64.613 72.65l-8.53.493z"/><path d="M878.275 694.857c20.197 0 36.571-16.08 36.571-35.918 0-17.633-12.937-32.298-29.998-35.34l-6.573-.579H293.132c-20.198 0-36.572 16.081-36.572 35.919 0 17.632 12.937 32.298 29.998 35.34l6.574.578h585.143zM267.272 537.86c12.695 12.695 32.4 14.106 46.655 4.232l5.065-4.232 193.567-193.577 120.427 120.434c12.696 12.696 32.401 14.106 46.655 4.232l5.065-4.232 219.429-219.429c14.28-14.282 14.28-37.437 0-51.72-12.696-12.695-32.403-14.105-46.655-4.231l-5.065 4.232-193.569 193.576L538.42 266.712c-12.695-12.696-32.402-14.107-46.654-4.232l-5.066 4.232L267.272 486.14c-14.283 14.283-14.283 37.437 0 51.72zM878.275 1024c20.197 0 36.571-16.081 36.571-35.918 0-17.633-12.937-32.298-29.998-35.34l-6.573-.579H293.132c-20.198 0-36.572 16.081-36.572 35.919 0 17.632 12.937 32.297 29.998 35.34l6.574.578h585.143z"/></svg>