<svg class="icon" width="200" height="200" viewBox="0 0 1024 1024" xmlns="http://www.w3.org/2000/svg"><path d="M587.077 0c33.99 0 66.59 13.486 90.625 37.49l245.331 245.02a127.918 127.918 0 0 1 37.538 90.51V896c0 70.693-57.38 128-128.163 128H191.592c-70.783 0-128.163-57.307-128.163-128V128c0-70.693 57.38-128 128.163-128h395.485zm0 64H191.59c-32.863 0-59.948 24.706-63.65 56.537L127.51 128v768c0 32.822 24.738 59.872 56.609 63.57l7.473.43h640.816c32.864 0 59.948-24.706 63.65-56.537l.432-7.463V373.02c0-6.815-1.089-13.518-3.169-19.876l-190.234-.001c-49.723 0-90.584-37.95-95.22-86.474l-.437-9.216V67.314a64.136 64.136 0 0 0-11.93-2.759L587.077 64zM728.35 427.634c11.104 11.072 12.331 28.255 3.687 40.678l-3.705 4.415-256.206 255.086c-11.114 11.067-28.364 12.288-40.832 3.668l-4.43-3.694L299.071 600.26c-12.488-12.461-12.473-32.651.033-45.093 11.117-11.06 28.36-12.277 40.825-3.66l4.43 3.694 105.163 104.907 233.574-232.491c12.502-12.447 32.763-12.439 45.255.018zM839.256 289.35L671.2 121.507v135.946c0 15.659 11.28 28.682 26.154 31.382l5.732.515 136.17-.001z"/></svg>