<svg class="icon" width="200" height="200" viewBox="0 0 1024 1024" xmlns="http://www.w3.org/2000/svg"><path d="M641.029 0l5.772.506C661.783 3.168 673.143 16 673.143 31.43c0 17.357-14.377 31.428-32.114 31.428H543.92c.053.756.079 1.518.079 2.286l.003 63.983C776.491 145.535 960 339.337 960 576c0 247.424-200.576 448-448 448S64 823.424 64 576c0-237.051 184.112-431.1 417.142-446.954V65.143l.202-2.286h-97.23l-5.772-.506C363.36 59.689 352 46.857 352 31.429 352 14.07 366.377 0 384.114 0H641.03zM512 192c-212.078 0-384 171.922-384 384s171.922 384 384 384 384-171.922 384-384-171.922-384-384-384zm-1.143 158.857l5.752.518c14.928 2.722 26.248 15.846 26.248 31.625v160.75l288-.036 5.752.518c14.928 2.722 26.248 15.846 26.248 31.625 0 17.752-14.327 32.143-32 32.143h-320l-5.752-.518c-14.928-2.722-26.248-15.845-26.248-31.625V383l.516-5.778c2.708-14.993 15.774-26.365 31.484-26.365z"/></svg>