<svg class="icon" width="200" height="200" viewBox="0 0 1024 1024" xmlns="http://www.w3.org/2000/svg"><path d="M955.392 712.704v-161.28c0-9.728-5.12-18.432-14.336-22.528l-194.56-83.456-3.072-1.024V206.848c0-4.608-1.536-9.216-4.096-12.8 0-.512-.512-.512-.512-1.024v-.512l-.512-.512v-.512c-1.536-1.536-3.072-3.072-4.608-4.096-1.536-1.024-4.096-2.048-6.144-3.072L518.656 94.208c-3.072-1.024-6.144-1.536-9.728-1.536s-6.656.512-9.728 1.536L288.768 184.32c-2.048.512-4.096 1.536-5.632 3.072-6.656 4.608-10.752 11.264-10.752 19.968v237.568l-3.072 1.024-194.56 83.456c-2.048 1.024-4.608 2.048-6.144 4.608-5.12 4.608-8.192 10.752-8.192 17.92v253.952c0 9.728 5.632 18.432 14.848 22.528L286.72 919.04c3.584 1.024 5.632 1.536 9.728 1.536h3.072c2.048 0 4.608-.512 6.656-1.536h.512l1.024-.512 198.144-84.992 1.536-.512 1.536.512L709.12 919.04c3.584 1.024 6.144 1.536 9.728 1.536h2.048c1.536 0 4.096-.512 5.632-1.024h.512l1.024-.512 163.84-70.144c9.216-3.584 15.36-12.288 15.36-23.04 0-13.824-10.752-24.576-24.576-24.576-3.584 0-6.656.512-9.728 2.048l-123.904 53.248-5.632 2.048V650.752l3.072-1.024 73.216-28.672 80.896-31.744 5.632-2.048v126.464c0 13.312 10.752 24.064 24.064 24.064s24.064-10.752 24.064-24.064c1.024 0 1.024-.512 1.024-1.024zM695.296 243.712v200.704l-3.072 1.024-153.6 67.072-5.632 3.072V307.2l3.072-1.024 154.112-60.416 5.12-2.048zM297.984 608.256l-1.536.512-1.536-.512-135.168-53.248-9.728-4.096 9.728-4.096 135.168-58.368 1.536-.512 1.536.512 136.192 58.368 9.728 4.096-9.728 4.096-25.6 9.728-110.592 43.52zM483.84 593.92v195.584l-3.072 1.024-154.112 66.048-5.632 2.048V650.752l3.072-1.024 73.216-28.672 80.896-31.744 5.632-2.048v6.656zm26.112-330.24l-1.536.512-1.536-.512-6.656-2.56-129.536-51.2-9.728-4.096 9.728-4.096 135.68-58.368 1.536-.512 1.536.512 135.68 58.368 9.728 4.096-9.728 4.096-129.536 51.2-5.632 2.56zM857.6 554.496l-129.536 51.2-6.144 2.048-1.536.512-1.536-.512-6.144-2.048-129.536-51.2-9.728-4.096 9.728-4.096 136.704-58.368 1.536-.512 1.536.512 135.168 58.368 9.728 4.096-10.24 4.096z"/><path d="M165.888 687.104v-90.112l49.664 19.456v71.168c0 13.824-11.264 25.088-25.088 25.088-13.312-1.024-24.576-11.776-24.576-25.6zm91.648 97.28a24.712 24.712 0 0 0-32.256-13.824l-89.6 34.816 68.608 27.136 39.424-15.36c12.8-5.632 18.944-19.968 13.824-32.768z"/></svg>