<svg class="icon" width="200" height="200" viewBox="0 0 1024 1024" xmlns="http://www.w3.org/2000/svg"><path d="M0 0h1024v1024H0z" opacity=".01"/><path d="M418.848 824.896l1.088 41.6L24.544 876.8l-1.088-41.6 395.392-10.304zM384 480a96 96 0 0 1 90.192 128.944l128.88 141.008h370.08v41.6H584.784l-134-146.576a96.032 96.032 0 0 1-160.528-48.192L54 596.8v-41.6h236.272A96.032 96.032 0 0 1 384 480zm128.208-33.344l456 4.544-.416 41.6-456-4.544.416-41.6zm460.96-245.872v41.6H561.664l-176.096 158.72h-274.08v-41.6H369.6l176.144-158.72h427.44z"/></svg>