<svg class="icon" width="200" height="200" viewBox="0 0 1024 1024" xmlns="http://www.w3.org/2000/svg"><path d="M870.4 1024H0V0h870.4v347.136h-51.2V51.2h-768v921.6h768v-75.264h51.2V1024z"/><path d="M204.8 256h460.8v51.2H204.8zm0 153.6h358.4v51.2H204.8zm0 153.6H512v51.2H204.8zm0 153.6H512V768H204.8zm638.976 63.334l39.475-22.784 140.544 243.456-39.424 22.784z"/><path d="M883.2 757.76l-39.424 22.528L984.576 1024l39.424-23.04-140.8-243.2z"/><path d="M768 819.2a204.8 204.8 0 1 1 204.8-204.8A204.8 204.8 0 0 1 768 819.2zm0-358.4a153.6 153.6 0 1 0 153.6 153.6A153.6 153.6 0 0 0 768 460.8z"/></svg>