<svg class="icon" width="200" height="200" viewBox="0 0 1024 1024" xmlns="http://www.w3.org/2000/svg"><path d="M362.09999999999997 522.9a115.8 115.8 0 1 0 231.6 0 115.8 115.8 0 1 0-231.6 0zM225 384a68.5 68.5 0 1 0 137 0 68.5 68.5 0 1 0-137 0zm264.7-89.7a70.5 70.5 0 1 0 141 0 70.5 70.5 0 1 0-141 0zm-212.6 442a66.6 66.6 0 1 0 133.2 0 66.6 66.6 0 1 0-133.2 0zM575.3 688a54.1 54.1 0 1 0 108.2 0 54.1 54.1 0 1 0-108.2 0zm72.3-220.1a77.2 77.2 0 1 0 154.4 0 77.2 77.2 0 1 0-154.4 0zm-175.442 51.287l79.61-225.353 18.198 6.429-79.61 225.353zM621.8 694L463 516.6 732.1 458l4.1 18.9-236.7 51.5 136.6 152.7zm-286.71 36.657L469.256 517.34l16.338 10.276-134.165 213.318zm-47.786-339.405l11.464-15.525 188.23 138.996-11.465 15.525z"/></svg>