<svg class="icon" width="200" height="199.8" viewBox="0 0 1025 1024" xmlns="http://www.w3.org/2000/svg"><path d="M735.744 236.544c12.288 13.312 13.312 32.768 2.56 43.008L332.288 654.848c-11.264 10.24-30.208 7.68-43.008-5.632-12.288-13.312-13.312-32.768-2.56-43.008l406.016-375.296c11.776-10.24 30.72-7.68 43.008 5.632zM958.976 27.136H65.536C29.184 27.136 0 56.832 0 92.672V793.6c0 36.352 29.696 65.536 65.536 65.536H417.28v89.6H177.664c-18.432 0-33.28 14.848-33.28 33.28s14.848 33.28 33.28 33.28h669.184c18.432 0 33.28-14.848 33.28-33.28 0-17.92-14.848-32.768-33.28-33.28H609.792v-89.6h349.696c36.352 0 65.536-29.696 65.536-65.536V92.16c-.512-35.84-30.208-65.024-66.048-65.024zm0 742.4h-.512c0 12.288-10.24 22.528-22.528 22.528H90.112c-12.288 0-22.528-10.24-22.528-23.04v-652.8c0-12.288 10.24-22.528 22.528-22.528h846.336c12.288 0 22.528 10.24 22.528 22.528v653.312zM348.672 462.848c-66.048 0-119.808-53.76-119.808-119.808s53.76-119.808 119.808-119.808S468.48 276.992 468.48 343.04s-53.76 119.808-119.808 119.808zm0-173.568c-29.696 0-53.248 24.064-53.248 53.248 0 29.696 24.064 53.248 53.248 53.248s53.248-24.064 53.248-53.248-23.552-53.248-53.248-53.248zm327.68 373.76c-66.048 0-119.808-53.76-119.808-119.808s53.76-119.808 119.808-119.808 119.808 53.76 119.808 119.808c.512 66.048-53.76 119.808-119.808 119.808zm0-173.568c-29.696 0-53.248 24.064-53.248 53.248s24.064 53.248 53.248 53.248S729.6 571.904 729.6 542.72s-23.552-53.248-53.248-53.248z"/></svg>