<svg class="icon" width="200" height="200" viewBox="0 0 1024 1024" xmlns="http://www.w3.org/2000/svg"><path d="M512.03 1024a511.94 511.94 0 0 1 0-1024 21.698 21.698 0 0 1 21.698 21.698v472.24h468.544a21.698 21.698 0 0 1 21.698 21.818A513.252 513.252 0 0 1 512.03 1024zM490.33 43.874a468.543 468.543 0 1 0 489.527 493.46H512.03a21.698 21.698 0 0 1-21.699-21.698z"/><path d="M997.741 435.161H597.99a17.645 17.645 0 0 1-17.645-17.883V17.764A17.645 17.645 0 0 1 597.989 0a417.874 417.874 0 0 1 417.278 417.278 17.645 17.645 0 0 1-17.526 17.883zM616.23 399.395h363.39A382.465 382.465 0 0 0 615.752 35.767z"/></svg>