<svg class="icon" width="200" height="200" viewBox="0 0 1024 1024" xmlns="http://www.w3.org/2000/svg"><path d="M972.8 51.2v921.6H51.2V51.2h921.6M1024 0H0v1024h1024V0z"/><path d="M230.4 634.88h-51.2V896h51.2V634.88zm204.8-58.112H384V896h51.2V576.768zM640 518.912h-51.2V896H640V518.912zM844.8 460.8h-51.2V896h51.2V460.8zm-647.424 69.376l-36.352-36.352 250.368-250.112L540.16 398.336l261.888-238.08 34.304 37.888-301.312 273.92-127.232-152.576-210.432 210.688z"/><path d="M819.2 128v51.2H665.6V128zm51.2 179.2h-51.2V128h51.2z"/></svg>