<svg class="icon" width="200" height="190.16" viewBox="0 0 1077 1024" xmlns="http://www.w3.org/2000/svg"><path d="M646.737 94.316H0v53.895h646.737V94.316zm431.158 0h-80.842v53.895h80.842V94.316zM943.158 53.895v134.737H700.632V53.895h242.526M997.053 0H646.737v242.526h350.316V0zM404.21 507.419H0v53.895h404.21v-53.895zM1077.895 512H754.526v53.895h323.369V512zm-377.263-53.895v134.737H458.105V458.105h242.527m53.894-53.894H404.211v242.526h350.315V404.21zM161.684 884.682H0v53.895h161.684v-53.895zm916.21 4.581H485.054v53.895h592.842v-53.895z"/><path d="M458.105 835.368v134.737H215.58V835.368h242.526M512 781.474H161.684V1024H512V781.474z"/></svg>