<svg class="icon" width="200" height="200" viewBox="0 0 1024 1024" xmlns="http://www.w3.org/2000/svg"><path d="M111.794 425.788c6.856.717 13.098 3.173 18.419 6.754l199.336 82.272c20.772 8.596 30.698 32.336 22.102 53.108-7.981 19.34-29.06 29.266-48.606 23.638l-4.502-1.535-152.879-62.932c5.22 123.204 72.347 238.016 182.861 301.87 175.186 101.1 399.183 41.135 500.284-134.051 11.256-19.442 36.122-26.094 55.564-14.94 19.442 11.256 26.094 36.122 14.94 55.564C775.803 949.71 502.074 1023.08 287.9 899.466c-155.54-89.844-240.779-262.37-221.132-437.76 2.558-22.41 22.717-38.476 45.025-35.918zm623.793-301.664C891.23 213.97 976.468 386.597 956.72 562.09c-2.558 22.307-22.614 38.373-45.024 35.917a41.321 41.321 0 0 1-18.931-7.163L693.94 508.879c-20.773-8.596-30.699-32.336-22.103-53.108 7.982-19.34 29.061-29.266 48.606-23.638l4.502 1.535L877.824 496.6c-5.219-123.204-72.346-238.016-182.86-301.87C519.776 93.63 295.78 153.596 194.68 328.782c-11.256 19.442-36.122 26.094-55.565 14.94-19.442-11.256-26.093-36.122-14.94-55.564C247.685 73.88 521.415.512 735.587 124.124z"/></svg>