<svg class="icon" width="200" height="200" viewBox="0 0 1024 1024" xmlns="http://www.w3.org/2000/svg"><path d="M776.272 342.111c-1.716 0-2.574 0-4.29-.858-8.58-2.574-14.587-11.154-12.013-20.592l39.47-158.735-158.735-38.611c-8.58-2.574-14.587-11.154-12.013-20.593 2.574-8.58 11.155-14.586 20.593-12.012L824.32 133.61c8.58 2.574 14.586 11.154 12.012 20.593L792.574 329.24c-1.716 7.722-8.58 12.87-16.302 12.87zm-599.76 212.79c-6.006 0-11.154-2.574-14.586-7.722-5.148-7.722-2.574-18.019 6.006-23.167l56.63-34.32c7.722-5.149 18.018-2.575 23.166 6.006 5.149 7.722 2.574 18.018-6.006 23.166l-56.63 34.321c-2.573.858-5.148 1.716-8.58 1.716z"/><path d="M318.086 469.099c-6.006 0-11.154-2.574-14.586-7.722-5.148-7.723-2.574-18.019 6.006-23.167l501.087-302.883c7.722-5.148 18.018-2.574 23.166 6.006 5.148 7.723 2.574 18.019-6.006 23.167L326.667 467.383c-2.574 1.716-6.006 1.716-8.58 1.716zm7.723 465.05H198.82c-9.438 0-16.302-7.723-16.302-16.303V741.093c0-9.439 7.722-16.303 16.302-16.303h126.988c9.438 0 16.302 7.722 16.302 16.303v176.753c0 8.58-7.722 16.302-16.302 16.302zm-110.686-33.464h93.525v-143.29h-93.525v143.29zm371.525 33.463H459.66c-9.438 0-16.302-7.722-16.302-16.302V620.11c0-9.438 7.722-16.302 16.302-16.302h126.988c9.438 0 16.303 7.722 16.303 16.302v297.735c0 8.58-7.723 16.302-16.303 16.302zm-110.685-33.463h93.525v-265.13h-93.525v265.13zm371.525 33.463H720.5c-9.438 0-16.302-7.722-16.302-16.302V463.093c0-9.439 7.722-16.303 16.302-16.303h126.988c9.438 0 16.302 7.722 16.302 16.303v454.753c0 8.58-7.722 16.302-16.302 16.302zm-110.686-33.463h93.525v-421.29h-93.525v421.29z"/></svg>